<svg xmlns="http://www.w3.org/2000/svg" width="1120" height="340" viewBox="0 0 1120 340" role="img">
<title>RYF issue-driven visitor signal</title>
<defs>
  <linearGradient id="accent" x1="0" y1="0" x2="1" y2="0">
    <stop offset="0" stop-color="#e3bd62"/>
    <stop offset=".52" stop-color="#a78bfa"/>
    <stop offset="1" stop-color="#63e6a1"/>
  </linearGradient>
  <radialGradient id="radarGlow">
    <stop offset="0" stop-color="#63e6a1" stop-opacity=".20"/>
    <stop offset="1" stop-color="#63e6a1" stop-opacity="0"/>
  </radialGradient>
  <filter id="glow" x="-300%" y="-300%" width="600%" height="600%">
    <feGaussianBlur stdDeviation="4"/>
  </filter>
</defs>
<rect x="1" y="1" width="1118" height="338" rx="26" fill="#080a0e" stroke="#21262d"/>

<text x="38" y="35" fill="#7d8590" font-size="11" font-family="Segoe UI" letter-spacing="2.2">ISSUE-DRIVEN INTERACTION / VISITOR SIGNAL</text>
<g><rect x="54" y="50" width="34" height="34" fill="#151a21"/><rect x="88" y="50" width="34" height="34" fill="#0f1319"/><rect x="122" y="50" width="34" height="34" fill="#151a21"/><rect x="156" y="50" width="34" height="34" fill="#0f1319"/><rect x="190" y="50" width="34" height="34" fill="#151a21"/><rect x="224" y="50" width="34" height="34" fill="#0f1319"/><rect x="258" y="50" width="34" height="34" fill="#151a21"/><rect x="292" y="50" width="34" height="34" fill="#0f1319"/><rect x="54" y="84" width="34" height="34" fill="#0f1319"/><rect x="88" y="84" width="34" height="34" fill="#151a21"/><rect x="122" y="84" width="34" height="34" fill="#0f1319"/><rect x="156" y="84" width="34" height="34" fill="#151a21"/><rect x="190" y="84" width="34" height="34" fill="#0f1319"/><rect x="224" y="84" width="34" height="34" fill="#151a21"/><rect x="258" y="84" width="34" height="34" fill="#0f1319"/><rect x="292" y="84" width="34" height="34" fill="#151a21"/><rect x="54" y="118" width="34" height="34" fill="#151a21"/><rect x="88" y="118" width="34" height="34" fill="#0f1319"/><rect x="122" y="118" width="34" height="34" fill="#151a21"/><rect x="156" y="118" width="34" height="34" fill="#0f1319"/><rect x="190" y="118" width="34" height="34" fill="#151a21"/><rect x="224" y="118" width="34" height="34" fill="#0f1319"/><rect x="258" y="118" width="34" height="34" fill="#151a21"/><rect x="292" y="118" width="34" height="34" fill="#0f1319"/><rect x="54" y="152" width="34" height="34" fill="#0f1319"/><rect x="88" y="152" width="34" height="34" fill="#151a21"/><rect x="122" y="152" width="34" height="34" fill="#0f1319"/><rect x="156" y="152" width="34" height="34" fill="#151a21"/><rect x="190" y="152" width="34" height="34" fill="#0f1319"/><rect x="224" y="152" width="34" height="34" fill="#151a21"/><rect x="258" y="152" width="34" height="34" fill="#0f1319"/><rect x="292" y="152" width="34" height="34" fill="#151a21"/><rect x="54" y="186" width="34" height="34" fill="#151a21"/><rect x="88" y="186" width="34" height="34" fill="#0f1319"/><rect x="122" y="186" width="34" height="34" fill="#151a21"/><rect x="156" y="186" width="34" height="34" fill="#0f1319"/><rect x="190" y="186" width="34" height="34" fill="#151a21"/><rect x="224" y="186" width="34" height="34" fill="#0f1319"/><rect x="258" y="186" width="34" height="34" fill="#151a21"/><rect x="292" y="186" width="34" height="34" fill="#0f1319"/><rect x="54" y="220" width="34" height="34" fill="#0f1319"/><rect x="88" y="220" width="34" height="34" fill="#151a21"/><rect x="122" y="220" width="34" height="34" fill="#0f1319"/><rect x="156" y="220" width="34" height="34" fill="#151a21"/><rect x="190" y="220" width="34" height="34" fill="#0f1319"/><rect x="224" y="220" width="34" height="34" fill="#151a21"/><rect x="258" y="220" width="34" height="34" fill="#0f1319"/><rect x="292" y="220" width="34" height="34" fill="#151a21"/><rect x="54" y="254" width="34" height="34" fill="#151a21"/><rect x="88" y="254" width="34" height="34" fill="#0f1319"/><rect x="122" y="254" width="34" height="34" fill="#151a21"/><rect x="156" y="254" width="34" height="34" fill="#0f1319"/><rect x="190" y="254" width="34" height="34" fill="#151a21"/><rect x="224" y="254" width="34" height="34" fill="#0f1319"/><rect x="258" y="254" width="34" height="34" fill="#151a21"/><rect x="292" y="254" width="34" height="34" fill="#0f1319"/><rect x="54" y="288" width="34" height="34" fill="#0f1319"/><rect x="88" y="288" width="34" height="34" fill="#151a21"/><rect x="122" y="288" width="34" height="34" fill="#0f1319"/><rect x="156" y="288" width="34" height="34" fill="#151a21"/><rect x="190" y="288" width="34" height="34" fill="#0f1319"/><rect x="224" y="288" width="34" height="34" fill="#151a21"/><rect x="258" y="288" width="34" height="34" fill="#0f1319"/><rect x="292" y="288" width="34" height="34" fill="#151a21"/></g>
<circle cx="139.0" cy="237.0" r="9" fill="#63e6a1" opacity=".22">
  <animate attributeName="r" values="9;26;9" dur="1.9s" repeatCount="indefinite"/>
  <animate attributeName="opacity" values=".25;0;.25" dur="1.9s" repeatCount="indefinite"/>
</circle>
<circle cx="139.0" cy="237.0" r="6" fill="#63e6a1"/>

<text x="506" y="72" fill="#7d8590" font-size="10.5" font-family="Segoe UI" letter-spacing="1.5">CURRENT POSITION</text>
<text x="506" y="128" fill="#f0f6fc" font-size="54" font-weight="800" font-family="Segoe UI">C3</text>
<text x="506" y="162" fill="#c9d1d9" font-size="14" font-family="Segoe UI">last moved by @system</text>
<text x="506" y="190" fill="#7d8590" font-size="12" font-family="Segoe UI">Open a bounded public Issue to move the signal.</text>
<text x="506" y="208" fill="#7d8590" font-size="11" font-family="Segoe UI">The Action validates one of four allowed coordinates, updates state, then closes the Issue.</text>

<rect x="508" y="224" width="106" height="46" rx="10" fill="#0d1117" stroke="#e3bd62" opacity=".92"/><text x="561" y="253" text-anchor="middle" fill="#e3bd62" font-size="18" font-weight="800" font-family="Segoe UI">A1</text><rect x="640" y="224" width="106" height="46" rx="10" fill="#0d1117" stroke="#a78bfa" opacity=".92"/><text x="693" y="253" text-anchor="middle" fill="#a78bfa" font-size="18" font-weight="800" font-family="Segoe UI">C3</text><rect x="772" y="224" width="106" height="46" rx="10" fill="#0d1117" stroke="#63e6a1" opacity=".92"/><text x="825" y="253" text-anchor="middle" fill="#63e6a1" font-size="18" font-weight="800" font-family="Segoe UI">F5</text><rect x="904" y="224" width="106" height="46" rx="10" fill="#0d1117" stroke="#58a6ff" opacity=".92"/><text x="957" y="253" text-anchor="middle" fill="#58a6ff" font-size="18" font-weight="800" font-family="Segoe UI">H7</text>

<path d="M506 292H1032" stroke="#27303a"/>
<circle cx="518" cy="292" r="3" fill="#63e6a1">
  <animate attributeName="cx" values="518;1020;518" dur="4.4s" repeatCount="indefinite"/>
</circle>

</svg>