<svg xmlns="http://www.w3.org/2000/svg" width="1120" height="180" viewBox="0 0 1120 180" role="img">
<title>RYF writing</title>
<defs>
  <linearGradient id="gold" x1="0" y1="0" x2="1" y2="0">
    <stop offset="0" stop-color="#d8b86a"/>
    <stop offset=".55" stop-color="#f2d58b"/>
    <stop offset="1" stop-color="#d8b86a"/>
  </linearGradient>
  <linearGradient id="violet" x1="0" y1="0" x2="1" y2="1">
    <stop offset="0" stop-color="#c4b5fd"/>
    <stop offset="1" stop-color="#9b87ff"/>
  </linearGradient>
  <linearGradient id="system" x1="0" y1="0" x2="1" y2="0">
    <stop offset="0" stop-color="#9b87ff"/>
    <stop offset=".5" stop-color="#d8b86a"/>
    <stop offset="1" stop-color="#48e59b"/>
  </linearGradient>
  <radialGradient id="glow">
    <stop offset="0" stop-color="#f2d58b" stop-opacity=".18"/>
    <stop offset=".55" stop-color="#9b87ff" stop-opacity=".06"/>
    <stop offset="1" stop-color="#07090d" stop-opacity="0"/>
  </radialGradient>
  <filter id="blur" x="-300%" y="-300%" width="600%" height="600%">
    <feGaussianBlur stdDeviation="7"/>
  </filter>
  <filter id="soft" x="-300%" y="-300%" width="600%" height="600%">
    <feGaussianBlur stdDeviation="3"/>
  </filter>
</defs>
<rect width="1120" height="180" rx="28" fill="#07090d"/>
<rect x="1" y="1" width="1118" height="178" rx="27" fill="none" stroke="#242a32"/>

<g opacity=".88"><rect x="18" y="38" width="22" height="22" fill="#15120c"/><rect x="40" y="38" width="22" height="22" fill="#0d0f12"/><rect x="62" y="38" width="22" height="22" fill="#15120c"/><rect x="84" y="38" width="22" height="22" fill="#0d0f12"/><rect x="106" y="38" width="22" height="22" fill="#15120c"/><rect x="128" y="38" width="22" height="22" fill="#0d0f12"/><rect x="150" y="38" width="22" height="22" fill="#15120c"/><rect x="172" y="38" width="22" height="22" fill="#0d0f12"/><rect x="18" y="60" width="22" height="22" fill="#0d0f12"/><rect x="40" y="60" width="22" height="22" fill="#15120c"/><rect x="62" y="60" width="22" height="22" fill="#0d0f12"/><rect x="84" y="60" width="22" height="22" fill="#15120c"/><rect x="106" y="60" width="22" height="22" fill="#0d0f12"/><rect x="128" y="60" width="22" height="22" fill="#15120c"/><rect x="150" y="60" width="22" height="22" fill="#0d0f12"/><rect x="172" y="60" width="22" height="22" fill="#15120c"/><rect x="18" y="82" width="22" height="22" fill="#15120c"/><rect x="40" y="82" width="22" height="22" fill="#0d0f12"/><rect x="62" y="82" width="22" height="22" fill="#15120c"/><rect x="84" y="82" width="22" height="22" fill="#0d0f12"/><rect x="106" y="82" width="22" height="22" fill="#15120c"/><rect x="128" y="82" width="22" height="22" fill="#0d0f12"/><rect x="150" y="82" width="22" height="22" fill="#15120c"/><rect x="172" y="82" width="22" height="22" fill="#0d0f12"/><rect x="18" y="104" width="22" height="22" fill="#0d0f12"/><rect x="40" y="104" width="22" height="22" fill="#15120c"/><rect x="62" y="104" width="22" height="22" fill="#0d0f12"/><rect x="84" y="104" width="22" height="22" fill="#15120c"/><rect x="106" y="104" width="22" height="22" fill="#0d0f12"/><rect x="128" y="104" width="22" height="22" fill="#15120c"/><rect x="150" y="104" width="22" height="22" fill="#0d0f12"/><rect x="172" y="104" width="22" height="22" fill="#15120c"/><rect x="18" y="126" width="22" height="22" fill="#15120c"/><rect x="40" y="126" width="22" height="22" fill="#0d0f12"/><rect x="62" y="126" width="22" height="22" fill="#15120c"/><rect x="84" y="126" width="22" height="22" fill="#0d0f12"/><rect x="106" y="126" width="22" height="22" fill="#15120c"/><rect x="128" y="126" width="22" height="22" fill="#0d0f12"/><rect x="150" y="126" width="22" height="22" fill="#15120c"/><rect x="172" y="126" width="22" height="22" fill="#0d0f12"/></g>
<text x="40" y="112" fill="#f2d58b" font-size="32" font-family="Georgia, serif" opacity=".9">♟</text><text x="65" y="90" fill="#f2d58b" font-size="32" font-family="Georgia, serif" opacity=".9">♙</text><text x="92" y="112" fill="#f2d58b" font-size="32" font-family="Georgia, serif" opacity=".9">♞</text><text x="122" y="83" fill="#f2d58b" font-size="32" font-family="Georgia, serif" opacity=".9">♛</text><text x="154" y="106" fill="#f2d58b" font-size="32" font-family="Georgia, serif" opacity=".9">♜</text>
<rect x="-110" y="24" width="100" height="128" fill="#f2d58b" opacity=".08">
  <animate attributeName="x" values="-110;210;-110" dur="5.2s" repeatCount="indefinite"/>
</rect>
<line x1="220" y1="24" x2="220" y2="154" stroke="#1c232b"/>
<text x="252" y="45" fill="#f2d58b" font-size="10.5" font-weight="800" font-family="monospace">ENDGAME / WRITING</text>
<text x="252" y="83" fill="#f4f7fb" font-size="24" font-weight="800" font-family="Segoe UI">1台のWindows PCをAI開発チームにする</text>
<text x="252" y="111" fill="#b7bec8" font-size="12.5" font-family="Segoe UI">GitHub · self-hosted runners · automation · QA · human-controlled AI workflows</text>
<text x="252" y="139" fill="#6f7782" font-size="10.5" font-family="Segoe UI">Practical engineering guide / companion: windows-ai-dev-team</text>

</svg>