<svg xmlns="http://www.w3.org/2000/svg" width="1200" height="360" viewBox="0 0 1200 360" role="img" aria-labelledby="title desc">
<title id="title">RYF — AI-native product builder</title>
<desc id="desc">Minimal chess-inspired light profile banner.</desc>
<defs>
  <linearGradient id="bg" x1="0" y1="0" x2="1" y2="1"><stop offset="0" stop-color="#ffffff"/><stop offset="1" stop-color="#f7f8fa"/></linearGradient>
  <pattern id="grid" width="42" height="42" patternUnits="userSpaceOnUse"><rect width="42" height="42" fill="none" stroke="#d8dee4" stroke-width="1"/></pattern>
</defs>
<rect width="1200" height="360" rx="28" fill="url(#bg)"/>
<rect x="48" y="44" width="1104" height="272" rx="22" fill="none" stroke="#d8dee4"/>
<text x="86" y="132" fill="#1f2328" font-size="72" font-weight="800" font-family="Segoe UI, Inter, Arial, sans-serif" letter-spacing="9">RYF</text>
<rect x="88" y="154" width="330" height="3" rx="1.5" fill="#9a7b24"/>
<text x="88" y="205" fill="#24292f" font-size="25" font-weight="650" font-family="Segoe UI, Inter, Arial, sans-serif" letter-spacing="1.8">AI-NATIVE PRODUCT BUILDER</text>
<text x="88" y="249" fill="#57606a" font-size="19" font-family="Segoe UI, Inter, Arial, sans-serif">Building systems with AI, automation, and disciplined execution.</text>
<text x="88" y="287" fill="#6e7781" font-size="15" font-family="Segoe UI, Inter, Arial, sans-serif" letter-spacing="1.5">THINK AHEAD · MAKE DELIBERATE MOVES · VERIFY THE RESULT</text>
<g transform="translate(832 74)">
  <rect width="252" height="210" rx="14" fill="url(#grid)"/>
  <rect x="84" y="42" width="42" height="42" fill="#9a7b24" opacity=".16"/>
  <rect x="126" y="84" width="42" height="42" fill="#7c3aed" opacity=".12"/>
  <rect x="168" y="126" width="42" height="42" fill="#1a7f37" opacity=".10"/>
  <path d="M105 63 L147 105 L189 147" fill="none" stroke="#9a7b24" stroke-width="2.5" stroke-linecap="round" stroke-linejoin="round"/>
  <circle cx="105" cy="63" r="5" fill="#9a7b24"/><circle cx="147" cy="105" r="5" fill="#7c3aed"/><circle cx="189" cy="147" r="5" fill="#57606a"/>
  <text x="0" y="228" fill="#6e7781" font-size="12" font-family="Segoe UI, Arial, sans-serif">A</text>
  <text x="42" y="228" fill="#6e7781" font-size="12" font-family="Segoe UI, Arial, sans-serif">B</text>
  <text x="84" y="228" fill="#6e7781" font-size="12" font-family="Segoe UI, Arial, sans-serif">C</text>
  <text x="126" y="228" fill="#6e7781" font-size="12" font-family="Segoe UI, Arial, sans-serif">D</text>
  <text x="168" y="228" fill="#6e7781" font-size="12" font-family="Segoe UI, Arial, sans-serif">E</text>
  <text x="210" y="228" fill="#6e7781" font-size="12" font-family="Segoe UI, Arial, sans-serif">F</text>
</g>
</svg>